<?xml version="1.0"?>
<svg xmlns="http://www.w3.org/2000/svg" xmlns:xlink="http://www.w3.org/1999/xlink" xmlns:svgjs="http://svgjs.com/svgjs" version="1.1" width="512" height="512" x="0" y="0" viewBox="0 0 64 64" style="enable-background:new 0 0 512 512" xml:space="preserve" class=""><g><path xmlns="http://www.w3.org/2000/svg" d="m55 46c0-.415-.129-.743-.284-1h-3.432c-.155.257-.284.585-.284 1 0 1.103.897 2 2 2s2-.897 2-2z" fill="#242424" data-original="#000000" style="" class=""/><path xmlns="http://www.w3.org/2000/svg" d="m56.854 45c.086.326.146.659.146 1 0 2.206-1.794 4-4 4s-4-1.794-4-4c0-.341.06-.674.146-1h-2.052c-.057.332-.094.666-.094 1 0 3.309 2.691 6 6 6s6-2.691 6-6c0-.334-.037-.668-.094-1z" fill="#242424" data-original="#000000" style="" class=""/><path xmlns="http://www.w3.org/2000/svg" d="m58 28h2l-4.5-6h-4.5v6h5v2h-6c-.552 0-1-.448-1-1v-7h-2v22h15v-14h-4zm-5 7h-3v-2h3z" fill="#242424" data-original="#000000" style="" class=""/><path xmlns="http://www.w3.org/2000/svg" d="m16.854 45c.086.326.146.659.146 1 0 2.206-1.794 4-4 4s-4-1.794-4-4c0-.341.06-.674.146-1h-2.052c-.057.332-.094.666-.094 1 0 3.309 2.691 6 6 6s6-2.691 6-6c0-.334-.037-.668-.094-1z" fill="#242424" data-original="#000000" style="" class=""/><path xmlns="http://www.w3.org/2000/svg" d="m13 48c1.103 0 2-.897 2-2 0-.415-.129-.743-.284-1h-3.432c-.155.257-.284.585-.284 1 0 1.103.897 2 2 2z" fill="#242424" data-original="#000000" style="" class=""/><path xmlns="http://www.w3.org/2000/svg" d="m36 27h-1v12h10v-27h-43v32h43v-3h-38v-2h8v-2h-4v-2h4v-8h-1c-.433 0-.817-.279-.951-.691s.013-.863.363-1.118l11-8c.351-.255.825-.255 1.177 0l2.411 1.754v-.945c0-.552.448-1 1-1h4c.552 0 1 .448 1 1v5.309l2.588 1.882c.35.254.497.706.363 1.118s-.518.691-.951.691zm-27 10h-2v-2h2z" fill="#242424" data-original="#000000" style="" class=""/><path xmlns="http://www.w3.org/2000/svg" d="m33 39v-12h-16v12h4v-7c0-.552.448-1 1-1h6c.552 0 1 .448 1 1v7z" fill="#242424" data-original="#000000" style="" class=""/><path xmlns="http://www.w3.org/2000/svg" d="m23 33h4v6h-4z" fill="#242424" data-original="#000000" style="" class=""/><path xmlns="http://www.w3.org/2000/svg" d="m30 19v1.909c0 .376-.211.72-.546.891-.334.17-.737.139-1.042-.083l-3.412-2.481-7.925 5.764h15.85l-.513-.373c-.259-.188-.412-.489-.412-.809v-4.818z" fill="#242424" data-original="#000000" style="" class=""/></g></svg>
