<?xml version="1.0"?>
<svg xmlns="http://www.w3.org/2000/svg" xmlns:xlink="http://www.w3.org/1999/xlink" xmlns:svgjs="http://svgjs.com/svgjs" version="1.1" width="512" height="512" x="0" y="0" viewBox="0 0 480 480" style="enable-background:new 0 0 512 512" xml:space="preserve" class=""><g>
<g xmlns="http://www.w3.org/2000/svg">
	<g>
		<path d="M383.592,269.448l-16-48c-1.089-3.268-4.147-5.473-7.592-5.472h-32c-4.418,0-8,3.582-8,8v48c0,4.418,3.582,8,8,8h48    c4.418,0.001,8.001-3.58,8.002-7.998C384.002,271.118,383.864,270.264,383.592,269.448z M336,263.976v-32h18.232l10.672,32H336z" fill="#242424" data-original="#000000" style="" class=""/>
	</g>
</g>
<g xmlns="http://www.w3.org/2000/svg">
	<g>
		<path d="M448.232,263.976h-26.816L391.432,189c-1.217-3.037-4.16-5.026-7.432-5.024h-80v-16c0-4.418-3.582-8-8-8h-8v-17.472    c12.497-4.418,19.046-18.131,14.627-30.627S284.497,92.831,272,97.249s-19.046,18.131-14.627,30.627    c2.416,6.835,7.793,12.211,14.627,14.627v17.472h-8c-4.418,0-8,3.582-8,8v56h-12.688L96,76.664v-4.688c0-4.418-3.582-8-8-8H8    c-4.418,0-8,3.582-8,8v56c0,2.122,0.844,4.156,2.344,5.656l24,24c1.5,1.5,3.534,2.344,5.656,2.344h8v14.056    c0,2.122,0.844,4.156,2.344,5.656l16.968,16.976c6.246,6.248,6.246,16.376,0,22.624c-6.329,6.047-16.295,6.047-22.624,0    c-6.246-6.248-6.246-16.376,0-22.624l-11.312-11.312c-12.499,12.495-12.502,32.756-0.007,45.255    c12.495,12.499,32.756,12.502,45.255,0.007c12.499-12.495,12.502-32.756,0.007-45.255c-0.002-0.002-0.005-0.005-0.007-0.007    L56,170.72v-10.744h8c2.122,0,4.156-0.844,5.656-2.344l21.384-21.384l98.168,119.2l-16.52,16.528H24c-4.418,0-8,3.582-8,8v96    c0,4.418,3.582,8,8,8h56.8c4.396,21.65,25.51,35.636,47.16,31.24c15.741-3.196,28.044-15.499,31.24-31.24h169.6    c4.396,21.65,25.51,35.636,47.16,31.24c15.741-3.196,28.044-15.499,31.24-31.24H472c4.418,0,8-3.582,8-8v-80.232    C479.982,278.206,465.77,263.994,448.232,263.976z M80,124.664l-19.312,19.312H35.312L16,124.664V79.976h64V124.664z M280,111.976    c4.418,0,8,3.582,8,8s-3.582,8-8,8s-8-3.582-8-8S275.582,111.976,280,111.976z M256,239.976v32h-60.688l32-32H256z M96,117.104    V99.288l125.24,125.24c-1.085,0.378-2.073,0.99-2.896,1.792l-17.768,17.768L96,117.104z M120,399.976c-13.255,0-24-10.745-24-24    s10.745-24,24-24s24,10.745,24,24S133.255,399.976,120,399.976z M176,367.976h-16.8c-4.396-21.65-25.51-35.636-47.16-31.24    c-15.741,3.196-28.044,15.499-31.24,31.24H64v-24.664c0.013-12.883,10.453-23.323,23.336-23.336h65.328    c12.883,0.013,23.323,10.453,23.336,23.336V367.976z M288,367.976h-96v-24.664c-0.026-21.714-17.622-39.31-39.336-39.336H87.336    c-21.714,0.026-39.31,17.622-39.336,39.336v24.664H32v-80h256V367.976z M288,191.976v80h-16v-96h16V191.976z M368,399.976    c-13.255,0-24-10.745-24-24s10.745-24,24-24s24,10.745,24,24S381.255,399.976,368,399.976z M464,367.976h-16v-16h16V367.976z     M464,303.976h-24v16h24v16h-24c-4.418,0-8,3.582-8,8v24h-24.8c-4.396-21.65-25.51-35.636-47.16-31.24    c-15.741,3.196-28.044,15.499-31.24,31.24h0H304v-168h74.584l29.984,74.976c1.217,3.037,4.16,5.026,7.432,5.024h32.232    c8.705,0.009,15.759,7.063,15.768,15.768V303.976z" fill="#242424" data-original="#000000" style="" class=""/>
	</g>
</g>
<g xmlns="http://www.w3.org/2000/svg">
</g>
<g xmlns="http://www.w3.org/2000/svg">
</g>
<g xmlns="http://www.w3.org/2000/svg">
</g>
<g xmlns="http://www.w3.org/2000/svg">
</g>
<g xmlns="http://www.w3.org/2000/svg">
</g>
<g xmlns="http://www.w3.org/2000/svg">
</g>
<g xmlns="http://www.w3.org/2000/svg">
</g>
<g xmlns="http://www.w3.org/2000/svg">
</g>
<g xmlns="http://www.w3.org/2000/svg">
</g>
<g xmlns="http://www.w3.org/2000/svg">
</g>
<g xmlns="http://www.w3.org/2000/svg">
</g>
<g xmlns="http://www.w3.org/2000/svg">
</g>
<g xmlns="http://www.w3.org/2000/svg">
</g>
<g xmlns="http://www.w3.org/2000/svg">
</g>
<g xmlns="http://www.w3.org/2000/svg">
</g>
</g></svg>
