<?xml version="1.0"?>
<svg xmlns="http://www.w3.org/2000/svg" xmlns:xlink="http://www.w3.org/1999/xlink" xmlns:svgjs="http://svgjs.com/svgjs" version="1.1" width="512" height="512" x="0" y="0" viewBox="0 0 510.666 510.666" style="enable-background:new 0 0 512 512" xml:space="preserve" class=""><g><g xmlns="http://www.w3.org/2000/svg"><path d="m75.178 214.731c-6.806 7.812-5.988 19.706 1.824 26.513l76.431 66.597c6.245 5.442 6.896 14.917 1.455 21.163-2.966 3.404-7.13 5.146-11.315 5.146-3.496 0-7.006-1.214-9.849-3.691l-76.431-66.597c-11.354-9.895-17.019-23.927-16.704-37.923h-.014v-139.768c0-10.987-8.526-20.356-19.505-20.772-11.542-.436-21.07 8.827-21.07 20.273v169.769c0 7.516 2.088 14.868 6.037 21.263l93.1 150.745c1.463 2.369 2.238 5.099 2.238 7.883v58.725c0 8.284 6.716 15 15 15h75.166c8.284 0 15-6.716 15-15v-190.119l-104.829-91.013c-7.831-6.824-19.726-6.007-26.534 1.806z" fill="#242424" data-original="#000000" style="" class=""/><path d="m489.596 65.399c-10.979.415-19.505 9.785-19.505 20.772v139.767h-.014c.314 13.996-5.35 28.029-16.704 37.923l-76.431 66.597c-2.843 2.477-6.354 3.691-9.849 3.691-4.186 0-8.349-1.742-11.315-5.146-5.441-6.246-4.79-15.721 1.455-21.163l76.431-66.597c7.812-6.807 8.63-18.701 1.823-26.513-6.783-7.785-18.617-8.625-26.429-1.896l-100.855 90.935v190.288c0 8.284 6.716 15 15 15h71.088c8.284 0 15-6.716 15-15v-58.725c0-2.784.775-5.514 2.238-7.883l93.1-150.745c3.949-6.395 6.037-13.748 6.037-21.263v-169.769c0-11.446-9.528-20.709-21.07-20.273z" fill="#242424" data-original="#000000" style="" class=""/><path d="m264.426 94.804c17.36 13.23 29.35 7.924 44.53 1.208 12.117-5.363 25.849-11.442 40.711-4.647 3.772 1.725 7.243 4.12 10.482 7.276-2.744-35.869-23.571-66.753-53.354-83.545-1.975 8.021-4.148 15.406-6.894 22.005-7.418 17.833-18.223 26.874-32.113 26.874-.175 0-.35-.002-.525-.002-10.018 0-16.622 4-17.986 7.991-1.414 4.132 1.706 12.594 15.149 22.84z" fill="#242424" data-original="#000000" style="" class=""/><path d="m220.89 62.259c5.884-17.214 24.047-28.277 46.352-28.287.793-.694 3.403-3.517 6.58-12.668 1.767-5.091 3.285-10.836 4.744-17.104-7.476-1.693-15.251-2.592-23.232-2.592-44.272 0-82.238 27.511-97.706 66.334 22.73 26.869 52.948 34.088 72.868 35.656-14.716-18.399-11.995-34.351-9.606-41.339z" fill="#242424" data-original="#000000" style="" class=""/><path d="m337.19 118.647c-2.584-1.179-9.762 1.996-16.094 4.798-13.8 6.107-33.238 14.688-56.533 5.685-5.734 10.038-23.609 46.802-1.551 82.446 40.371-2.929 74.49-28.756 89.4-64.522-7.687-23.335-13.533-27.635-15.222-28.407z" fill="#242424" data-original="#000000" style="" class=""/><path d="m229.709 133.646c-21.393-1.43-52.348-7.95-79.424-30.728-.045 1.267-.077 2.537-.077 3.815 0 48.606 33.161 89.606 78.046 101.582-6.583-18.208-7.725-38.019-3.229-58.539 1.288-5.877 2.935-11.298 4.684-16.13z" fill="#242424" data-original="#000000" style="" class=""/></g></g></svg>
